<mxfile host="app.diagrams.net" modified="2023-12-17T12:32:46.865Z" agent="Mozilla/5.0 (Windows NT 10.0; Win64; x64) AppleWebKit/537.36 (KHTML, like Gecko) Chrome/120.0.0.0 Safari/537.36" etag="2QgAOcPurNXOkI62-9Nr" version="22.1.11" type="github">
  <diagram name="Página-1" id="5t8v-FAfq3eq3jOAas9Z">
    <mxGraphModel dx="2200" dy="1265" grid="1" gridSize="10" guides="1" tooltips="1" connect="1" arrows="1" fold="1" page="1" pageScale="1" pageWidth="827" pageHeight="1169" math="0" shadow="0">
      <root>
        <mxCell id="0" />
        <mxCell id="1" parent="0" />
        <mxCell id="Byr7ttWTIuSPwqKm5QDh-1" value="Estudiantes" style="rounded=1;whiteSpace=wrap;html=1;" vertex="1" parent="1">
          <mxGeometry x="40" y="40" width="120" height="60" as="geometry" />
        </mxCell>
        <mxCell id="Byr7ttWTIuSPwqKm5QDh-2" value="Profesores" style="rounded=1;whiteSpace=wrap;html=1;" vertex="1" parent="1">
          <mxGeometry x="40" y="120" width="120" height="60" as="geometry" />
        </mxCell>
        <mxCell id="Byr7ttWTIuSPwqKm5QDh-3" value="Cursos" style="rounded=1;whiteSpace=wrap;html=1;" vertex="1" parent="1">
          <mxGeometry x="40" y="200" width="120" height="60" as="geometry" />
        </mxCell>
        <mxCell id="Byr7ttWTIuSPwqKm5QDh-4" value="Asignaturas" style="rounded=1;whiteSpace=wrap;html=1;" vertex="1" parent="1">
          <mxGeometry x="40" y="280" width="120" height="60" as="geometry" />
        </mxCell>
        <mxCell id="Byr7ttWTIuSPwqKm5QDh-5" value="Aulas" style="rounded=1;whiteSpace=wrap;html=1;" vertex="1" parent="1">
          <mxGeometry x="40" y="360" width="120" height="60" as="geometry" />
        </mxCell>
        <mxCell id="Byr7ttWTIuSPwqKm5QDh-6" value="Departamentos" style="rounded=1;whiteSpace=wrap;html=1;" vertex="1" parent="1">
          <mxGeometry x="40" y="440" width="120" height="60" as="geometry" />
        </mxCell>
        <mxCell id="Byr7ttWTIuSPwqKm5QDh-7" value="Programas Académicos" style="rounded=1;whiteSpace=wrap;html=1;" vertex="1" parent="1">
          <mxGeometry x="40" y="520" width="120" height="60" as="geometry" />
        </mxCell>
        <mxCell id="Byr7ttWTIuSPwqKm5QDh-8" value="Matrículas" style="rounded=1;whiteSpace=wrap;html=1;" vertex="1" parent="1">
          <mxGeometry x="40" y="600" width="120" height="60" as="geometry" />
        </mxCell>
        <mxCell id="Byr7ttWTIuSPwqKm5QDh-9" value="Notas" style="rounded=1;whiteSpace=wrap;html=1;" vertex="1" parent="1">
          <mxGeometry x="200" y="40" width="120" height="60" as="geometry" />
        </mxCell>
        <mxCell id="Byr7ttWTIuSPwqKm5QDh-10" value="Eventos" style="rounded=1;whiteSpace=wrap;html=1;" vertex="1" parent="1">
          <mxGeometry x="200" y="120" width="120" height="60" as="geometry" />
        </mxCell>
        <mxCell id="Byr7ttWTIuSPwqKm5QDh-11" value="Becas" style="rounded=1;whiteSpace=wrap;html=1;" vertex="1" parent="1">
          <mxGeometry x="200" y="200" width="120" height="60" as="geometry" />
        </mxCell>
        <mxCell id="Byr7ttWTIuSPwqKm5QDh-12" value="Biblioteca" style="rounded=1;whiteSpace=wrap;html=1;" vertex="1" parent="1">
          <mxGeometry x="200" y="280" width="120" height="60" as="geometry" />
        </mxCell>
        <mxCell id="Byr7ttWTIuSPwqKm5QDh-13" value="Instalaciones Deportivas" style="rounded=1;whiteSpace=wrap;html=1;" vertex="1" parent="1">
          <mxGeometry x="200" y="360" width="120" height="60" as="geometry" />
        </mxCell>
        <mxCell id="Byr7ttWTIuSPwqKm5QDh-14" value="Empleados Administrativos" style="rounded=1;whiteSpace=wrap;html=1;" vertex="1" parent="1">
          <mxGeometry x="200" y="440" width="120" height="60" as="geometry" />
        </mxCell>
        <mxCell id="Byr7ttWTIuSPwqKm5QDh-16" value="Empresas Asociadas" style="rounded=1;whiteSpace=wrap;html=1;" vertex="1" parent="1">
          <mxGeometry x="200" y="520" width="120" height="60" as="geometry" />
        </mxCell>
        <mxCell id="Byr7ttWTIuSPwqKm5QDh-17" value="Estudiantes" style="rounded=1;whiteSpace=wrap;html=1;" vertex="1" parent="1">
          <mxGeometry x="360" y="40" width="120" height="60" as="geometry" />
        </mxCell>
        <mxCell id="Byr7ttWTIuSPwqKm5QDh-18" value="Programas Académicos" style="rounded=1;whiteSpace=wrap;html=1;" vertex="1" parent="1">
          <mxGeometry x="640" y="40" width="120" height="60" as="geometry" />
        </mxCell>
        <mxCell id="Byr7ttWTIuSPwqKm5QDh-21" value="Cursos" style="rounded=1;whiteSpace=wrap;html=1;" vertex="1" parent="1">
          <mxGeometry x="640" y="270" width="120" height="60" as="geometry" />
        </mxCell>
        <mxCell id="Byr7ttWTIuSPwqKm5QDh-22" value="Profesores" style="rounded=1;whiteSpace=wrap;html=1;" vertex="1" parent="1">
          <mxGeometry x="360" y="270" width="120" height="60" as="geometry" />
        </mxCell>
        <mxCell id="Byr7ttWTIuSPwqKm5QDh-23" value="Cursos" style="rounded=1;whiteSpace=wrap;html=1;" vertex="1" parent="1">
          <mxGeometry x="357.5" y="415" width="120" height="60" as="geometry" />
        </mxCell>
        <mxCell id="Byr7ttWTIuSPwqKm5QDh-27" value="Aulas" style="rounded=1;whiteSpace=wrap;html=1;" vertex="1" parent="1">
          <mxGeometry x="360" y="590" width="120" height="60" as="geometry" />
        </mxCell>
        <mxCell id="Byr7ttWTIuSPwqKm5QDh-28" value="Cursos" style="rounded=1;whiteSpace=wrap;html=1;" vertex="1" parent="1">
          <mxGeometry x="640" y="590" width="120" height="60" as="geometry" />
        </mxCell>
        <mxCell id="Byr7ttWTIuSPwqKm5QDh-29" value="Departamentos" style="rounded=1;whiteSpace=wrap;html=1;" vertex="1" parent="1">
          <mxGeometry x="360" y="700" width="120" height="60" as="geometry" />
        </mxCell>
        <mxCell id="Byr7ttWTIuSPwqKm5QDh-30" value="Programas Académicos" style="rounded=1;whiteSpace=wrap;html=1;" vertex="1" parent="1">
          <mxGeometry x="640" y="700" width="120" height="60" as="geometry" />
        </mxCell>
        <mxCell id="Byr7ttWTIuSPwqKm5QDh-31" value="Estudiantes" style="rounded=1;whiteSpace=wrap;html=1;" vertex="1" parent="1">
          <mxGeometry x="360" y="810" width="120" height="60" as="geometry" />
        </mxCell>
        <mxCell id="Byr7ttWTIuSPwqKm5QDh-32" value="Cursos" style="rounded=1;whiteSpace=wrap;html=1;" vertex="1" parent="1">
          <mxGeometry x="640" y="810" width="120" height="60" as="geometry" />
        </mxCell>
        <mxCell id="Byr7ttWTIuSPwqKm5QDh-33" value="Notas" style="rounded=1;whiteSpace=wrap;html=1;" vertex="1" parent="1">
          <mxGeometry x="360" y="920" width="120" height="60" as="geometry" />
        </mxCell>
        <mxCell id="Byr7ttWTIuSPwqKm5QDh-34" value="Asignaturas" style="rounded=1;whiteSpace=wrap;html=1;" vertex="1" parent="1">
          <mxGeometry x="640" y="920" width="120" height="60" as="geometry" />
        </mxCell>
        <mxCell id="Byr7ttWTIuSPwqKm5QDh-35" value="Eventos" style="rounded=1;whiteSpace=wrap;html=1;" vertex="1" parent="1">
          <mxGeometry x="1120" y="45" width="120" height="60" as="geometry" />
        </mxCell>
        <mxCell id="Byr7ttWTIuSPwqKm5QDh-36" value="Empresas Asociadas" style="rounded=1;whiteSpace=wrap;html=1;" vertex="1" parent="1">
          <mxGeometry x="1400" y="45" width="120" height="60" as="geometry" />
        </mxCell>
        <mxCell id="Byr7ttWTIuSPwqKm5QDh-37" value="Estudiantes" style="rounded=1;whiteSpace=wrap;html=1;" vertex="1" parent="1">
          <mxGeometry x="1120" y="155" width="120" height="60" as="geometry" />
        </mxCell>
        <mxCell id="Byr7ttWTIuSPwqKm5QDh-38" value="Becas" style="rounded=1;whiteSpace=wrap;html=1;" vertex="1" parent="1">
          <mxGeometry x="1400" y="155" width="120" height="60" as="geometry" />
        </mxCell>
        <mxCell id="Byr7ttWTIuSPwqKm5QDh-39" value="Empleados Administrativos" style="rounded=1;whiteSpace=wrap;html=1;" vertex="1" parent="1">
          <mxGeometry x="1120" y="265" width="120" height="60" as="geometry" />
        </mxCell>
        <mxCell id="Byr7ttWTIuSPwqKm5QDh-40" value="Departamentos" style="rounded=1;whiteSpace=wrap;html=1;" vertex="1" parent="1">
          <mxGeometry x="1400" y="265" width="120" height="60" as="geometry" />
        </mxCell>
        <mxCell id="Byr7ttWTIuSPwqKm5QDh-41" value="Instalaciones Deportivas" style="rounded=1;whiteSpace=wrap;html=1;" vertex="1" parent="1">
          <mxGeometry x="1120" y="375" width="120" height="60" as="geometry" />
        </mxCell>
        <mxCell id="Byr7ttWTIuSPwqKm5QDh-43" value="Empresas Asociadas" style="rounded=1;whiteSpace=wrap;html=1;" vertex="1" parent="1">
          <mxGeometry x="1120" y="485" width="120" height="60" as="geometry" />
        </mxCell>
        <mxCell id="Byr7ttWTIuSPwqKm5QDh-44" value="Eventos" style="rounded=1;whiteSpace=wrap;html=1;" vertex="1" parent="1">
          <mxGeometry x="1400" y="485" width="120" height="60" as="geometry" />
        </mxCell>
        <mxCell id="Byr7ttWTIuSPwqKm5QDh-45" value="Empresas Asociadas" style="rounded=1;whiteSpace=wrap;html=1;" vertex="1" parent="1">
          <mxGeometry x="1120" y="595" width="120" height="60" as="geometry" />
        </mxCell>
        <mxCell id="Byr7ttWTIuSPwqKm5QDh-46" value="Eventos" style="rounded=1;whiteSpace=wrap;html=1;" vertex="1" parent="1">
          <mxGeometry x="1400" y="375" width="120" height="60" as="geometry" />
        </mxCell>
        <mxCell id="Byr7ttWTIuSPwqKm5QDh-47" value="Becas" style="rounded=1;whiteSpace=wrap;html=1;" vertex="1" parent="1">
          <mxGeometry x="1400" y="595" width="120" height="60" as="geometry" />
        </mxCell>
        <mxCell id="Byr7ttWTIuSPwqKm5QDh-48" value="Estudiantes" style="rounded=1;whiteSpace=wrap;html=1;" vertex="1" parent="1">
          <mxGeometry x="1120" y="860" width="120" height="60" as="geometry" />
        </mxCell>
        <mxCell id="Byr7ttWTIuSPwqKm5QDh-49" value="Tutor" style="rounded=1;whiteSpace=wrap;html=1;" vertex="1" parent="1">
          <mxGeometry x="1400" y="860" width="120" height="60" as="geometry" />
        </mxCell>
        <mxCell id="Byr7ttWTIuSPwqKm5QDh-50" value="Libro" style="rounded=1;whiteSpace=wrap;html=1;" vertex="1" parent="1">
          <mxGeometry x="200" y="600" width="120" height="60" as="geometry" />
        </mxCell>
        <mxCell id="Byr7ttWTIuSPwqKm5QDh-51" value="Libros" style="rounded=1;whiteSpace=wrap;html=1;" vertex="1" parent="1">
          <mxGeometry x="1400" y="980" width="120" height="60" as="geometry" />
        </mxCell>
        <mxCell id="Byr7ttWTIuSPwqKm5QDh-52" value="Estudiantes" style="rounded=1;whiteSpace=wrap;html=1;" vertex="1" parent="1">
          <mxGeometry x="1120" y="980" width="120" height="60" as="geometry" />
        </mxCell>
        <mxCell id="Byr7ttWTIuSPwqKm5QDh-55" value="Asociado" style="rhombus;whiteSpace=wrap;html=1;" vertex="1" parent="1">
          <mxGeometry x="520" y="30" width="80" height="80" as="geometry" />
        </mxCell>
        <mxCell id="Byr7ttWTIuSPwqKm5QDh-57" value="Imparten" style="rhombus;whiteSpace=wrap;html=1;" vertex="1" parent="1">
          <mxGeometry x="520" y="260" width="80" height="80" as="geometry" />
        </mxCell>
        <mxCell id="Byr7ttWTIuSPwqKm5QDh-58" value="Relacionadas" style="rhombus;whiteSpace=wrap;html=1;" vertex="1" parent="1">
          <mxGeometry x="517.5" y="405" width="80" height="80" as="geometry" />
        </mxCell>
        <mxCell id="Byr7ttWTIuSPwqKm5QDh-59" value="Utilzadas" style="rhombus;whiteSpace=wrap;html=1;" vertex="1" parent="1">
          <mxGeometry x="520" y="580" width="80" height="80" as="geometry" />
        </mxCell>
        <mxCell id="Byr7ttWTIuSPwqKm5QDh-60" value="Relacionado" style="rhombus;whiteSpace=wrap;html=1;" vertex="1" parent="1">
          <mxGeometry x="520" y="690" width="80" height="80" as="geometry" />
        </mxCell>
        <mxCell id="Byr7ttWTIuSPwqKm5QDh-61" value="Matriculan" style="rhombus;whiteSpace=wrap;html=1;" vertex="1" parent="1">
          <mxGeometry x="520" y="800" width="80" height="80" as="geometry" />
        </mxCell>
        <mxCell id="Byr7ttWTIuSPwqKm5QDh-62" value="Pertenece" style="rhombus;whiteSpace=wrap;html=1;" vertex="1" parent="1">
          <mxGeometry x="520" y="910" width="80" height="80" as="geometry" />
        </mxCell>
        <mxCell id="Byr7ttWTIuSPwqKm5QDh-63" value="Tiene" style="rhombus;whiteSpace=wrap;html=1;" vertex="1" parent="1">
          <mxGeometry x="1280" y="35" width="80" height="80" as="geometry" />
        </mxCell>
        <mxCell id="Byr7ttWTIuSPwqKm5QDh-64" value="Recibe" style="rhombus;whiteSpace=wrap;html=1;" vertex="1" parent="1">
          <mxGeometry x="1280" y="145" width="80" height="80" as="geometry" />
        </mxCell>
        <mxCell id="Byr7ttWTIuSPwqKm5QDh-66" value="Trabajan" style="rhombus;whiteSpace=wrap;html=1;" vertex="1" parent="1">
          <mxGeometry x="1280" y="255" width="80" height="80" as="geometry" />
        </mxCell>
        <mxCell id="Byr7ttWTIuSPwqKm5QDh-67" value="Son&lt;br&gt;&amp;nbsp;utilizadas" style="rhombus;whiteSpace=wrap;html=1;" vertex="1" parent="1">
          <mxGeometry x="1280" y="365" width="80" height="80" as="geometry" />
        </mxCell>
        <mxCell id="Byr7ttWTIuSPwqKm5QDh-68" value="Patrocina" style="rhombus;whiteSpace=wrap;html=1;" vertex="1" parent="1">
          <mxGeometry x="1280" y="475" width="80" height="80" as="geometry" />
        </mxCell>
        <mxCell id="Byr7ttWTIuSPwqKm5QDh-69" value="Proporciona" style="rhombus;whiteSpace=wrap;html=1;" vertex="1" parent="1">
          <mxGeometry x="1280" y="585" width="80" height="80" as="geometry" />
        </mxCell>
        <mxCell id="Byr7ttWTIuSPwqKm5QDh-70" value="Tiene" style="rhombus;whiteSpace=wrap;html=1;" vertex="1" parent="1">
          <mxGeometry x="1280" y="850" width="80" height="80" as="geometry" />
        </mxCell>
        <mxCell id="Byr7ttWTIuSPwqKm5QDh-71" value="Toma&lt;br&gt;Prestado" style="rhombus;whiteSpace=wrap;html=1;" vertex="1" parent="1">
          <mxGeometry x="1280" y="970" width="80" height="80" as="geometry" />
        </mxCell>
        <mxCell id="Byr7ttWTIuSPwqKm5QDh-72" value="1:1" style="text;html=1;strokeColor=none;fillColor=none;align=center;verticalAlign=middle;whiteSpace=wrap;rounded=0;" vertex="1" parent="1">
          <mxGeometry x="1620" y="45" width="60" height="30" as="geometry" />
        </mxCell>
        <mxCell id="Byr7ttWTIuSPwqKm5QDh-73" value="1:N" style="text;html=1;strokeColor=none;fillColor=none;align=center;verticalAlign=middle;whiteSpace=wrap;rounded=0;" vertex="1" parent="1">
          <mxGeometry x="1620" y="85" width="60" height="30" as="geometry" />
        </mxCell>
        <mxCell id="Byr7ttWTIuSPwqKm5QDh-74" value="N:1" style="text;html=1;strokeColor=none;fillColor=none;align=center;verticalAlign=middle;whiteSpace=wrap;rounded=0;" vertex="1" parent="1">
          <mxGeometry x="1620" y="125" width="60" height="30" as="geometry" />
        </mxCell>
        <mxCell id="Byr7ttWTIuSPwqKm5QDh-75" value="N:M" style="text;html=1;strokeColor=none;fillColor=none;align=center;verticalAlign=middle;whiteSpace=wrap;rounded=0;" vertex="1" parent="1">
          <mxGeometry x="1620" y="165" width="60" height="30" as="geometry" />
        </mxCell>
        <mxCell id="Byr7ttWTIuSPwqKm5QDh-76" value="0:1" style="text;html=1;strokeColor=none;fillColor=none;align=center;verticalAlign=middle;whiteSpace=wrap;rounded=0;" vertex="1" parent="1">
          <mxGeometry x="1560" y="45" width="60" height="30" as="geometry" />
        </mxCell>
        <mxCell id="Byr7ttWTIuSPwqKm5QDh-77" value="1:0" style="text;html=1;strokeColor=none;fillColor=none;align=center;verticalAlign=middle;whiteSpace=wrap;rounded=0;" vertex="1" parent="1">
          <mxGeometry x="1560" y="85" width="60" height="30" as="geometry" />
        </mxCell>
        <mxCell id="Byr7ttWTIuSPwqKm5QDh-78" value="0:N" style="text;html=1;strokeColor=none;fillColor=none;align=center;verticalAlign=middle;whiteSpace=wrap;rounded=0;" vertex="1" parent="1">
          <mxGeometry x="1560" y="125" width="60" height="30" as="geometry" />
        </mxCell>
        <mxCell id="Byr7ttWTIuSPwqKm5QDh-79" value="N:0" style="text;html=1;strokeColor=none;fillColor=none;align=center;verticalAlign=middle;whiteSpace=wrap;rounded=0;" vertex="1" parent="1">
          <mxGeometry x="1560" y="165" width="60" height="30" as="geometry" />
        </mxCell>
        <mxCell id="Byr7ttWTIuSPwqKm5QDh-81" value="" style="endArrow=none;html=1;rounded=0;" edge="1" parent="1" target="Byr7ttWTIuSPwqKm5QDh-55">
          <mxGeometry width="50" height="50" relative="1" as="geometry">
            <mxPoint x="480" y="70" as="sourcePoint" />
            <mxPoint x="530" y="20" as="targetPoint" />
          </mxGeometry>
        </mxCell>
        <mxCell id="Byr7ttWTIuSPwqKm5QDh-82" value="" style="endArrow=none;html=1;rounded=0;" edge="1" parent="1" target="Byr7ttWTIuSPwqKm5QDh-18">
          <mxGeometry width="50" height="50" relative="1" as="geometry">
            <mxPoint x="600" y="70" as="sourcePoint" />
            <mxPoint x="650" y="20" as="targetPoint" />
          </mxGeometry>
        </mxCell>
        <mxCell id="Byr7ttWTIuSPwqKm5QDh-85" value="" style="endArrow=none;html=1;rounded=0;" edge="1" parent="1" target="Byr7ttWTIuSPwqKm5QDh-57">
          <mxGeometry width="50" height="50" relative="1" as="geometry">
            <mxPoint x="480" y="300" as="sourcePoint" />
            <mxPoint x="530" y="250" as="targetPoint" />
          </mxGeometry>
        </mxCell>
        <mxCell id="Byr7ttWTIuSPwqKm5QDh-86" value="" style="endArrow=none;html=1;rounded=0;" edge="1" parent="1" target="Byr7ttWTIuSPwqKm5QDh-58">
          <mxGeometry width="50" height="50" relative="1" as="geometry">
            <mxPoint x="477.5" y="445" as="sourcePoint" />
            <mxPoint x="527.5" y="395" as="targetPoint" />
          </mxGeometry>
        </mxCell>
        <mxCell id="Byr7ttWTIuSPwqKm5QDh-87" value="" style="endArrow=none;html=1;rounded=0;" edge="1" parent="1" target="Byr7ttWTIuSPwqKm5QDh-59">
          <mxGeometry width="50" height="50" relative="1" as="geometry">
            <mxPoint x="480" y="620" as="sourcePoint" />
            <mxPoint x="530" y="570" as="targetPoint" />
          </mxGeometry>
        </mxCell>
        <mxCell id="Byr7ttWTIuSPwqKm5QDh-88" value="" style="endArrow=none;html=1;rounded=0;" edge="1" parent="1" target="Byr7ttWTIuSPwqKm5QDh-21">
          <mxGeometry width="50" height="50" relative="1" as="geometry">
            <mxPoint x="600" y="300" as="sourcePoint" />
            <mxPoint x="650" y="250" as="targetPoint" />
          </mxGeometry>
        </mxCell>
        <mxCell id="Byr7ttWTIuSPwqKm5QDh-89" value="" style="endArrow=none;html=1;rounded=0;" edge="1" parent="1">
          <mxGeometry width="50" height="50" relative="1" as="geometry">
            <mxPoint x="597.5" y="445" as="sourcePoint" />
            <mxPoint x="637.5" y="445" as="targetPoint" />
          </mxGeometry>
        </mxCell>
        <mxCell id="Byr7ttWTIuSPwqKm5QDh-90" value="" style="endArrow=none;html=1;rounded=0;" edge="1" parent="1" target="Byr7ttWTIuSPwqKm5QDh-28">
          <mxGeometry width="50" height="50" relative="1" as="geometry">
            <mxPoint x="600" y="620" as="sourcePoint" />
            <mxPoint x="650" y="570" as="targetPoint" />
          </mxGeometry>
        </mxCell>
        <mxCell id="Byr7ttWTIuSPwqKm5QDh-91" value="" style="endArrow=none;html=1;rounded=0;" edge="1" parent="1" target="Byr7ttWTIuSPwqKm5QDh-60">
          <mxGeometry width="50" height="50" relative="1" as="geometry">
            <mxPoint x="480" y="730" as="sourcePoint" />
            <mxPoint x="530" y="680" as="targetPoint" />
          </mxGeometry>
        </mxCell>
        <mxCell id="Byr7ttWTIuSPwqKm5QDh-92" value="" style="endArrow=none;html=1;rounded=0;" edge="1" parent="1" target="Byr7ttWTIuSPwqKm5QDh-30">
          <mxGeometry width="50" height="50" relative="1" as="geometry">
            <mxPoint x="600" y="730" as="sourcePoint" />
            <mxPoint x="650" y="680" as="targetPoint" />
          </mxGeometry>
        </mxCell>
        <mxCell id="Byr7ttWTIuSPwqKm5QDh-93" value="" style="endArrow=none;html=1;rounded=0;" edge="1" parent="1" target="Byr7ttWTIuSPwqKm5QDh-61">
          <mxGeometry width="50" height="50" relative="1" as="geometry">
            <mxPoint x="480" y="840" as="sourcePoint" />
            <mxPoint x="530" y="790" as="targetPoint" />
          </mxGeometry>
        </mxCell>
        <mxCell id="Byr7ttWTIuSPwqKm5QDh-94" value="" style="endArrow=none;html=1;rounded=0;" edge="1" parent="1" target="Byr7ttWTIuSPwqKm5QDh-32">
          <mxGeometry width="50" height="50" relative="1" as="geometry">
            <mxPoint x="600" y="840" as="sourcePoint" />
            <mxPoint x="650" y="790" as="targetPoint" />
          </mxGeometry>
        </mxCell>
        <mxCell id="Byr7ttWTIuSPwqKm5QDh-95" value="" style="endArrow=none;html=1;rounded=0;" edge="1" parent="1" target="Byr7ttWTIuSPwqKm5QDh-62">
          <mxGeometry width="50" height="50" relative="1" as="geometry">
            <mxPoint x="480" y="950" as="sourcePoint" />
            <mxPoint x="530" y="900" as="targetPoint" />
          </mxGeometry>
        </mxCell>
        <mxCell id="Byr7ttWTIuSPwqKm5QDh-96" value="" style="endArrow=none;html=1;rounded=0;" edge="1" parent="1" target="Byr7ttWTIuSPwqKm5QDh-34">
          <mxGeometry width="50" height="50" relative="1" as="geometry">
            <mxPoint x="600" y="950" as="sourcePoint" />
            <mxPoint x="650" y="900" as="targetPoint" />
          </mxGeometry>
        </mxCell>
        <mxCell id="Byr7ttWTIuSPwqKm5QDh-97" value="" style="endArrow=none;html=1;rounded=0;" edge="1" parent="1" target="Byr7ttWTIuSPwqKm5QDh-63">
          <mxGeometry width="50" height="50" relative="1" as="geometry">
            <mxPoint x="1240" y="75" as="sourcePoint" />
            <mxPoint x="1280" y="75" as="targetPoint" />
          </mxGeometry>
        </mxCell>
        <mxCell id="Byr7ttWTIuSPwqKm5QDh-98" value="" style="endArrow=none;html=1;rounded=0;" edge="1" parent="1" source="Byr7ttWTIuSPwqKm5QDh-63" target="Byr7ttWTIuSPwqKm5QDh-36">
          <mxGeometry width="50" height="50" relative="1" as="geometry">
            <mxPoint x="1360" y="75" as="sourcePoint" />
            <mxPoint x="1410" y="25" as="targetPoint" />
          </mxGeometry>
        </mxCell>
        <mxCell id="Byr7ttWTIuSPwqKm5QDh-99" value="" style="endArrow=none;html=1;rounded=0;" edge="1" parent="1" target="Byr7ttWTIuSPwqKm5QDh-64">
          <mxGeometry width="50" height="50" relative="1" as="geometry">
            <mxPoint x="1240" y="185" as="sourcePoint" />
            <mxPoint x="1290" y="135" as="targetPoint" />
          </mxGeometry>
        </mxCell>
        <mxCell id="Byr7ttWTIuSPwqKm5QDh-100" value="" style="endArrow=none;html=1;rounded=0;" edge="1" parent="1" target="Byr7ttWTIuSPwqKm5QDh-38">
          <mxGeometry width="50" height="50" relative="1" as="geometry">
            <mxPoint x="1360" y="185" as="sourcePoint" />
            <mxPoint x="1410" y="135" as="targetPoint" />
          </mxGeometry>
        </mxCell>
        <mxCell id="Byr7ttWTIuSPwqKm5QDh-103" value="" style="endArrow=none;html=1;rounded=0;" edge="1" parent="1" target="Byr7ttWTIuSPwqKm5QDh-66">
          <mxGeometry width="50" height="50" relative="1" as="geometry">
            <mxPoint x="1240" y="295" as="sourcePoint" />
            <mxPoint x="1290" y="245" as="targetPoint" />
          </mxGeometry>
        </mxCell>
        <mxCell id="Byr7ttWTIuSPwqKm5QDh-104" value="" style="endArrow=none;html=1;rounded=0;" edge="1" parent="1" target="Byr7ttWTIuSPwqKm5QDh-40">
          <mxGeometry width="50" height="50" relative="1" as="geometry">
            <mxPoint x="1360" y="295" as="sourcePoint" />
            <mxPoint x="1410" y="245" as="targetPoint" />
          </mxGeometry>
        </mxCell>
        <mxCell id="Byr7ttWTIuSPwqKm5QDh-105" value="" style="endArrow=none;html=1;rounded=0;" edge="1" parent="1" target="Byr7ttWTIuSPwqKm5QDh-67">
          <mxGeometry width="50" height="50" relative="1" as="geometry">
            <mxPoint x="1240" y="405" as="sourcePoint" />
            <mxPoint x="1290" y="355" as="targetPoint" />
          </mxGeometry>
        </mxCell>
        <mxCell id="Byr7ttWTIuSPwqKm5QDh-106" value="" style="endArrow=none;html=1;rounded=0;" edge="1" parent="1" target="Byr7ttWTIuSPwqKm5QDh-46">
          <mxGeometry width="50" height="50" relative="1" as="geometry">
            <mxPoint x="1360" y="405" as="sourcePoint" />
            <mxPoint x="1410" y="355" as="targetPoint" />
          </mxGeometry>
        </mxCell>
        <mxCell id="Byr7ttWTIuSPwqKm5QDh-107" value="" style="endArrow=none;html=1;rounded=0;" edge="1" parent="1" target="Byr7ttWTIuSPwqKm5QDh-68">
          <mxGeometry width="50" height="50" relative="1" as="geometry">
            <mxPoint x="1240" y="515" as="sourcePoint" />
            <mxPoint x="1290" y="465" as="targetPoint" />
          </mxGeometry>
        </mxCell>
        <mxCell id="Byr7ttWTIuSPwqKm5QDh-108" value="" style="endArrow=none;html=1;rounded=0;" edge="1" parent="1" target="Byr7ttWTIuSPwqKm5QDh-44">
          <mxGeometry width="50" height="50" relative="1" as="geometry">
            <mxPoint x="1360" y="515" as="sourcePoint" />
            <mxPoint x="1410" y="465" as="targetPoint" />
          </mxGeometry>
        </mxCell>
        <mxCell id="Byr7ttWTIuSPwqKm5QDh-109" value="" style="endArrow=none;html=1;rounded=0;" edge="1" parent="1" target="Byr7ttWTIuSPwqKm5QDh-69">
          <mxGeometry width="50" height="50" relative="1" as="geometry">
            <mxPoint x="1240" y="625" as="sourcePoint" />
            <mxPoint x="1290" y="575" as="targetPoint" />
          </mxGeometry>
        </mxCell>
        <mxCell id="Byr7ttWTIuSPwqKm5QDh-110" value="" style="endArrow=none;html=1;rounded=0;" edge="1" parent="1" target="Byr7ttWTIuSPwqKm5QDh-47">
          <mxGeometry width="50" height="50" relative="1" as="geometry">
            <mxPoint x="1360" y="625" as="sourcePoint" />
            <mxPoint x="1410" y="575" as="targetPoint" />
          </mxGeometry>
        </mxCell>
        <mxCell id="Byr7ttWTIuSPwqKm5QDh-111" value="" style="endArrow=none;html=1;rounded=0;" edge="1" parent="1" target="Byr7ttWTIuSPwqKm5QDh-70">
          <mxGeometry width="50" height="50" relative="1" as="geometry">
            <mxPoint x="1240" y="890" as="sourcePoint" />
            <mxPoint x="1290" y="840" as="targetPoint" />
          </mxGeometry>
        </mxCell>
        <mxCell id="Byr7ttWTIuSPwqKm5QDh-112" value="" style="endArrow=none;html=1;rounded=0;" edge="1" parent="1" target="Byr7ttWTIuSPwqKm5QDh-49">
          <mxGeometry width="50" height="50" relative="1" as="geometry">
            <mxPoint x="1360" y="890" as="sourcePoint" />
            <mxPoint x="1410" y="840" as="targetPoint" />
          </mxGeometry>
        </mxCell>
        <mxCell id="Byr7ttWTIuSPwqKm5QDh-113" value="" style="endArrow=none;html=1;rounded=0;" edge="1" parent="1" target="Byr7ttWTIuSPwqKm5QDh-71">
          <mxGeometry width="50" height="50" relative="1" as="geometry">
            <mxPoint x="1240" y="1010" as="sourcePoint" />
            <mxPoint x="1290" y="960" as="targetPoint" />
          </mxGeometry>
        </mxCell>
        <mxCell id="Byr7ttWTIuSPwqKm5QDh-114" value="" style="endArrow=none;html=1;rounded=0;" edge="1" parent="1" target="Byr7ttWTIuSPwqKm5QDh-51">
          <mxGeometry width="50" height="50" relative="1" as="geometry">
            <mxPoint x="1360" y="1010" as="sourcePoint" />
            <mxPoint x="1410" y="960" as="targetPoint" />
          </mxGeometry>
        </mxCell>
        <mxCell id="Byr7ttWTIuSPwqKm5QDh-115" value="1:1" style="text;html=1;strokeColor=none;fillColor=none;align=center;verticalAlign=middle;whiteSpace=wrap;rounded=0;" vertex="1" parent="1">
          <mxGeometry x="580" y="40" width="60" height="30" as="geometry" />
        </mxCell>
        <mxCell id="Byr7ttWTIuSPwqKm5QDh-116" value="N:1" style="text;html=1;strokeColor=none;fillColor=none;align=center;verticalAlign=middle;whiteSpace=wrap;rounded=0;" vertex="1" parent="1">
          <mxGeometry x="480" y="40" width="60" height="30" as="geometry" />
        </mxCell>
        <mxCell id="Byr7ttWTIuSPwqKm5QDh-19" value="Cursos" style="rounded=1;whiteSpace=wrap;html=1;" vertex="1" parent="1">
          <mxGeometry x="360" y="150" width="120" height="60" as="geometry" />
        </mxCell>
        <mxCell id="Byr7ttWTIuSPwqKm5QDh-20" value="Programas Académicos" style="rounded=1;whiteSpace=wrap;html=1;" vertex="1" parent="1">
          <mxGeometry x="640" y="150" width="120" height="60" as="geometry" />
        </mxCell>
        <mxCell id="Byr7ttWTIuSPwqKm5QDh-56" value="Pertenece" style="rhombus;whiteSpace=wrap;html=1;" vertex="1" parent="1">
          <mxGeometry x="520" y="140" width="80" height="80" as="geometry" />
        </mxCell>
        <mxCell id="Byr7ttWTIuSPwqKm5QDh-83" value="" style="endArrow=none;html=1;rounded=0;" edge="1" parent="1" target="Byr7ttWTIuSPwqKm5QDh-56">
          <mxGeometry width="50" height="50" relative="1" as="geometry">
            <mxPoint x="480" y="180" as="sourcePoint" />
            <mxPoint x="530" y="130" as="targetPoint" />
          </mxGeometry>
        </mxCell>
        <mxCell id="Byr7ttWTIuSPwqKm5QDh-84" value="" style="endArrow=none;html=1;rounded=0;" edge="1" parent="1" target="Byr7ttWTIuSPwqKm5QDh-20">
          <mxGeometry width="50" height="50" relative="1" as="geometry">
            <mxPoint x="600" y="180" as="sourcePoint" />
            <mxPoint x="650" y="130" as="targetPoint" />
          </mxGeometry>
        </mxCell>
        <mxCell id="Byr7ttWTIuSPwqKm5QDh-118" value="N:1" style="text;html=1;strokeColor=none;fillColor=none;align=center;verticalAlign=middle;whiteSpace=wrap;rounded=0;" vertex="1" parent="1">
          <mxGeometry x="530" width="60" height="30" as="geometry" />
        </mxCell>
        <mxCell id="Byr7ttWTIuSPwqKm5QDh-119" value="N:1" style="text;html=1;strokeColor=none;fillColor=none;align=center;verticalAlign=middle;whiteSpace=wrap;rounded=0;" vertex="1" parent="1">
          <mxGeometry x="480" y="150" width="60" height="30" as="geometry" />
        </mxCell>
        <mxCell id="Byr7ttWTIuSPwqKm5QDh-120" value="N:1" style="text;html=1;strokeColor=none;fillColor=none;align=center;verticalAlign=middle;whiteSpace=wrap;rounded=0;" vertex="1" parent="1">
          <mxGeometry x="530" y="110" width="60" height="30" as="geometry" />
        </mxCell>
        <mxCell id="Byr7ttWTIuSPwqKm5QDh-121" value="1:1" style="text;html=1;strokeColor=none;fillColor=none;align=center;verticalAlign=middle;whiteSpace=wrap;rounded=0;" vertex="1" parent="1">
          <mxGeometry x="580" y="150" width="60" height="30" as="geometry" />
        </mxCell>
        <mxCell id="Byr7ttWTIuSPwqKm5QDh-122" value="1:N" style="text;html=1;strokeColor=none;fillColor=none;align=center;verticalAlign=middle;whiteSpace=wrap;rounded=0;" vertex="1" parent="1">
          <mxGeometry x="580" y="270" width="60" height="30" as="geometry" />
        </mxCell>
        <mxCell id="Byr7ttWTIuSPwqKm5QDh-123" value="N:1" style="text;html=1;strokeColor=none;fillColor=none;align=center;verticalAlign=middle;whiteSpace=wrap;rounded=0;" vertex="1" parent="1">
          <mxGeometry x="480" y="270" width="60" height="30" as="geometry" />
        </mxCell>
        <mxCell id="Byr7ttWTIuSPwqKm5QDh-124" value="N:M" style="text;html=1;strokeColor=none;fillColor=none;align=center;verticalAlign=middle;whiteSpace=wrap;rounded=0;" vertex="1" parent="1">
          <mxGeometry x="530" y="230" width="60" height="30" as="geometry" />
        </mxCell>
        <mxCell id="Byr7ttWTIuSPwqKm5QDh-125" value="1:N" style="text;html=1;strokeColor=none;fillColor=none;align=center;verticalAlign=middle;whiteSpace=wrap;rounded=0;" vertex="1" parent="1">
          <mxGeometry x="577.5" y="415" width="60" height="30" as="geometry" />
        </mxCell>
        <mxCell id="Byr7ttWTIuSPwqKm5QDh-126" value="N:1" style="text;html=1;strokeColor=none;fillColor=none;align=center;verticalAlign=middle;whiteSpace=wrap;rounded=0;" vertex="1" parent="1">
          <mxGeometry x="477.5" y="415" width="60" height="30" as="geometry" />
        </mxCell>
        <mxCell id="Byr7ttWTIuSPwqKm5QDh-127" value="N:M" style="text;html=1;strokeColor=none;fillColor=none;align=center;verticalAlign=middle;whiteSpace=wrap;rounded=0;" vertex="1" parent="1">
          <mxGeometry x="527.5" y="375" width="60" height="30" as="geometry" />
        </mxCell>
        <mxCell id="Byr7ttWTIuSPwqKm5QDh-128" value="1:N" style="text;html=1;strokeColor=none;fillColor=none;align=center;verticalAlign=middle;whiteSpace=wrap;rounded=0;" vertex="1" parent="1">
          <mxGeometry x="580" y="590" width="60" height="30" as="geometry" />
        </mxCell>
        <mxCell id="Byr7ttWTIuSPwqKm5QDh-129" value="N:1" style="text;html=1;strokeColor=none;fillColor=none;align=center;verticalAlign=middle;whiteSpace=wrap;rounded=0;" vertex="1" parent="1">
          <mxGeometry x="480" y="590" width="60" height="30" as="geometry" />
        </mxCell>
        <mxCell id="Byr7ttWTIuSPwqKm5QDh-130" value="N:M" style="text;html=1;strokeColor=none;fillColor=none;align=center;verticalAlign=middle;whiteSpace=wrap;rounded=0;" vertex="1" parent="1">
          <mxGeometry x="530" y="550" width="60" height="30" as="geometry" />
        </mxCell>
        <mxCell id="Byr7ttWTIuSPwqKm5QDh-131" value="1:N" style="text;html=1;strokeColor=none;fillColor=none;align=center;verticalAlign=middle;whiteSpace=wrap;rounded=0;" vertex="1" parent="1">
          <mxGeometry x="580" y="700" width="60" height="30" as="geometry" />
        </mxCell>
        <mxCell id="Byr7ttWTIuSPwqKm5QDh-132" value="N:1" style="text;html=1;strokeColor=none;fillColor=none;align=center;verticalAlign=middle;whiteSpace=wrap;rounded=0;" vertex="1" parent="1">
          <mxGeometry x="480" y="700" width="60" height="30" as="geometry" />
        </mxCell>
        <mxCell id="Byr7ttWTIuSPwqKm5QDh-133" value="N:M" style="text;html=1;strokeColor=none;fillColor=none;align=center;verticalAlign=middle;whiteSpace=wrap;rounded=0;" vertex="1" parent="1">
          <mxGeometry x="530" y="660" width="60" height="30" as="geometry" />
        </mxCell>
        <mxCell id="Byr7ttWTIuSPwqKm5QDh-134" value="1:N" style="text;html=1;strokeColor=none;fillColor=none;align=center;verticalAlign=middle;whiteSpace=wrap;rounded=0;" vertex="1" parent="1">
          <mxGeometry x="580" y="810" width="60" height="30" as="geometry" />
        </mxCell>
        <mxCell id="Byr7ttWTIuSPwqKm5QDh-135" value="N:1" style="text;html=1;strokeColor=none;fillColor=none;align=center;verticalAlign=middle;whiteSpace=wrap;rounded=0;" vertex="1" parent="1">
          <mxGeometry x="480" y="810" width="60" height="30" as="geometry" />
        </mxCell>
        <mxCell id="Byr7ttWTIuSPwqKm5QDh-136" value="N:M" style="text;html=1;strokeColor=none;fillColor=none;align=center;verticalAlign=middle;whiteSpace=wrap;rounded=0;" vertex="1" parent="1">
          <mxGeometry x="530" y="770" width="60" height="30" as="geometry" />
        </mxCell>
        <mxCell id="Byr7ttWTIuSPwqKm5QDh-137" value="1:1" style="text;html=1;strokeColor=none;fillColor=none;align=center;verticalAlign=middle;whiteSpace=wrap;rounded=0;" vertex="1" parent="1">
          <mxGeometry x="580" y="920" width="60" height="30" as="geometry" />
        </mxCell>
        <mxCell id="Byr7ttWTIuSPwqKm5QDh-138" value="1:1" style="text;html=1;strokeColor=none;fillColor=none;align=center;verticalAlign=middle;whiteSpace=wrap;rounded=0;" vertex="1" parent="1">
          <mxGeometry x="480" y="920" width="60" height="30" as="geometry" />
        </mxCell>
        <mxCell id="Byr7ttWTIuSPwqKm5QDh-139" value="1:1" style="text;html=1;strokeColor=none;fillColor=none;align=center;verticalAlign=middle;whiteSpace=wrap;rounded=0;" vertex="1" parent="1">
          <mxGeometry x="530" y="880" width="60" height="30" as="geometry" />
        </mxCell>
        <mxCell id="Byr7ttWTIuSPwqKm5QDh-140" value="1:N" style="text;html=1;strokeColor=none;fillColor=none;align=center;verticalAlign=middle;whiteSpace=wrap;rounded=0;" vertex="1" parent="1">
          <mxGeometry x="1340" y="45" width="60" height="30" as="geometry" />
        </mxCell>
        <mxCell id="Byr7ttWTIuSPwqKm5QDh-141" value="N:1" style="text;html=1;strokeColor=none;fillColor=none;align=center;verticalAlign=middle;whiteSpace=wrap;rounded=0;" vertex="1" parent="1">
          <mxGeometry x="1240" y="45" width="60" height="30" as="geometry" />
        </mxCell>
        <mxCell id="Byr7ttWTIuSPwqKm5QDh-142" value="N:M" style="text;html=1;strokeColor=none;fillColor=none;align=center;verticalAlign=middle;whiteSpace=wrap;rounded=0;" vertex="1" parent="1">
          <mxGeometry x="1290" y="5" width="60" height="30" as="geometry" />
        </mxCell>
        <mxCell id="Byr7ttWTIuSPwqKm5QDh-143" value="0:N" style="text;html=1;strokeColor=none;fillColor=none;align=center;verticalAlign=middle;whiteSpace=wrap;rounded=0;" vertex="1" parent="1">
          <mxGeometry x="1340" y="155" width="60" height="30" as="geometry" />
        </mxCell>
        <mxCell id="Byr7ttWTIuSPwqKm5QDh-144" value="N:1" style="text;html=1;strokeColor=none;fillColor=none;align=center;verticalAlign=middle;whiteSpace=wrap;rounded=0;" vertex="1" parent="1">
          <mxGeometry x="1240" y="155" width="60" height="30" as="geometry" />
        </mxCell>
        <mxCell id="Byr7ttWTIuSPwqKm5QDh-145" value="N:M" style="text;html=1;strokeColor=none;fillColor=none;align=center;verticalAlign=middle;whiteSpace=wrap;rounded=0;" vertex="1" parent="1">
          <mxGeometry x="1290" y="115" width="60" height="30" as="geometry" />
        </mxCell>
        <mxCell id="Byr7ttWTIuSPwqKm5QDh-148" value="1:1" style="text;html=1;strokeColor=none;fillColor=none;align=center;verticalAlign=middle;whiteSpace=wrap;rounded=0;" vertex="1" parent="1">
          <mxGeometry x="1340" y="265" width="60" height="30" as="geometry" />
        </mxCell>
        <mxCell id="Byr7ttWTIuSPwqKm5QDh-149" value="N:1" style="text;html=1;strokeColor=none;fillColor=none;align=center;verticalAlign=middle;whiteSpace=wrap;rounded=0;" vertex="1" parent="1">
          <mxGeometry x="1240" y="265" width="60" height="30" as="geometry" />
        </mxCell>
        <mxCell id="Byr7ttWTIuSPwqKm5QDh-150" value="N:1" style="text;html=1;strokeColor=none;fillColor=none;align=center;verticalAlign=middle;whiteSpace=wrap;rounded=0;" vertex="1" parent="1">
          <mxGeometry x="1290" y="225" width="60" height="30" as="geometry" />
        </mxCell>
        <mxCell id="Byr7ttWTIuSPwqKm5QDh-151" value="1:N" style="text;html=1;strokeColor=none;fillColor=none;align=center;verticalAlign=middle;whiteSpace=wrap;rounded=0;" vertex="1" parent="1">
          <mxGeometry x="1340" y="375" width="60" height="30" as="geometry" />
        </mxCell>
        <mxCell id="Byr7ttWTIuSPwqKm5QDh-152" value="1:N" style="text;html=1;strokeColor=none;fillColor=none;align=center;verticalAlign=middle;whiteSpace=wrap;rounded=0;" vertex="1" parent="1">
          <mxGeometry x="1240" y="375" width="60" height="30" as="geometry" />
        </mxCell>
        <mxCell id="Byr7ttWTIuSPwqKm5QDh-153" value="N:M" style="text;html=1;strokeColor=none;fillColor=none;align=center;verticalAlign=middle;whiteSpace=wrap;rounded=0;" vertex="1" parent="1">
          <mxGeometry x="1290" y="335" width="60" height="30" as="geometry" />
        </mxCell>
        <mxCell id="Byr7ttWTIuSPwqKm5QDh-154" value="0:N" style="text;html=1;strokeColor=none;fillColor=none;align=center;verticalAlign=middle;whiteSpace=wrap;rounded=0;" vertex="1" parent="1">
          <mxGeometry x="1340" y="485" width="60" height="30" as="geometry" />
        </mxCell>
        <mxCell id="Byr7ttWTIuSPwqKm5QDh-156" value="N:M" style="text;html=1;strokeColor=none;fillColor=none;align=center;verticalAlign=middle;whiteSpace=wrap;rounded=0;" vertex="1" parent="1">
          <mxGeometry x="1290" y="445" width="60" height="30" as="geometry" />
        </mxCell>
        <mxCell id="Byr7ttWTIuSPwqKm5QDh-157" value="0:N" style="text;html=1;strokeColor=none;fillColor=none;align=center;verticalAlign=middle;whiteSpace=wrap;rounded=0;" vertex="1" parent="1">
          <mxGeometry x="1340" y="595" width="60" height="30" as="geometry" />
        </mxCell>
        <mxCell id="Byr7ttWTIuSPwqKm5QDh-158" value="N:1" style="text;html=1;strokeColor=none;fillColor=none;align=center;verticalAlign=middle;whiteSpace=wrap;rounded=0;" vertex="1" parent="1">
          <mxGeometry x="1240" y="595" width="60" height="30" as="geometry" />
        </mxCell>
        <mxCell id="Byr7ttWTIuSPwqKm5QDh-159" value="N:0" style="text;html=1;strokeColor=none;fillColor=none;align=center;verticalAlign=middle;whiteSpace=wrap;rounded=0;" vertex="1" parent="1">
          <mxGeometry x="1240" y="485" width="60" height="30" as="geometry" />
        </mxCell>
        <mxCell id="Byr7ttWTIuSPwqKm5QDh-160" value="N:M" style="text;html=1;strokeColor=none;fillColor=none;align=center;verticalAlign=middle;whiteSpace=wrap;rounded=0;" vertex="1" parent="1">
          <mxGeometry x="1290" y="555" width="60" height="30" as="geometry" />
        </mxCell>
        <mxCell id="Byr7ttWTIuSPwqKm5QDh-161" value="1:1" style="text;html=1;strokeColor=none;fillColor=none;align=center;verticalAlign=middle;whiteSpace=wrap;rounded=0;" vertex="1" parent="1">
          <mxGeometry x="1340" y="860" width="60" height="30" as="geometry" />
        </mxCell>
        <mxCell id="Byr7ttWTIuSPwqKm5QDh-164" value="0:1" style="text;html=1;strokeColor=none;fillColor=none;align=center;verticalAlign=middle;whiteSpace=wrap;rounded=0;" vertex="1" parent="1">
          <mxGeometry x="1340" y="980" width="60" height="30" as="geometry" />
        </mxCell>
        <mxCell id="Byr7ttWTIuSPwqKm5QDh-165" value="1:0" style="text;html=1;strokeColor=none;fillColor=none;align=center;verticalAlign=middle;whiteSpace=wrap;rounded=0;" vertex="1" parent="1">
          <mxGeometry x="1240" y="980" width="60" height="30" as="geometry" />
        </mxCell>
        <mxCell id="Byr7ttWTIuSPwqKm5QDh-166" value="1:1" style="text;html=1;strokeColor=none;fillColor=none;align=center;verticalAlign=middle;whiteSpace=wrap;rounded=0;" vertex="1" parent="1">
          <mxGeometry x="1290" y="940" width="60" height="30" as="geometry" />
        </mxCell>
        <mxCell id="Byr7ttWTIuSPwqKm5QDh-167" value="N:1" style="text;html=1;strokeColor=none;fillColor=none;align=center;verticalAlign=middle;whiteSpace=wrap;rounded=0;" vertex="1" parent="1">
          <mxGeometry x="1240" y="860" width="60" height="30" as="geometry" />
        </mxCell>
        <mxCell id="Byr7ttWTIuSPwqKm5QDh-168" value="N:1" style="text;html=1;strokeColor=none;fillColor=none;align=center;verticalAlign=middle;whiteSpace=wrap;rounded=0;" vertex="1" parent="1">
          <mxGeometry x="1290" y="820" width="60" height="30" as="geometry" />
        </mxCell>
        <mxCell id="Byr7ttWTIuSPwqKm5QDh-185" value="Asignaturas Previas" style="rounded=1;whiteSpace=wrap;html=1;" vertex="1" parent="1">
          <mxGeometry x="922.5" y="345" width="120" height="60" as="geometry" />
        </mxCell>
        <mxCell id="Byr7ttWTIuSPwqKm5QDh-186" value="Nuevas Asignaturas" style="rounded=1;whiteSpace=wrap;html=1;" vertex="1" parent="1">
          <mxGeometry x="922.5" y="505" width="120" height="60" as="geometry" />
        </mxCell>
        <mxCell id="Byr7ttWTIuSPwqKm5QDh-187" value="Asignaturas" style="rounded=1;whiteSpace=wrap;html=1;" vertex="1" parent="1">
          <mxGeometry x="637.5" y="415" width="120" height="60" as="geometry" />
        </mxCell>
        <mxCell id="Byr7ttWTIuSPwqKm5QDh-188" value="" style="endArrow=none;html=1;rounded=0;" edge="1" parent="1" source="Byr7ttWTIuSPwqKm5QDh-187" target="Byr7ttWTIuSPwqKm5QDh-195">
          <mxGeometry width="50" height="50" relative="1" as="geometry">
            <mxPoint x="736.5" y="365" as="sourcePoint" />
            <mxPoint x="846.5" y="375" as="targetPoint" />
            <Array as="points">
              <mxPoint x="696.5" y="375" />
            </Array>
          </mxGeometry>
        </mxCell>
        <mxCell id="Byr7ttWTIuSPwqKm5QDh-189" value="" style="endArrow=none;html=1;rounded=0;exitX=0.442;exitY=1.029;exitDx=0;exitDy=0;exitPerimeter=0;" edge="1" parent="1" source="Byr7ttWTIuSPwqKm5QDh-187" target="Byr7ttWTIuSPwqKm5QDh-193">
          <mxGeometry width="50" height="50" relative="1" as="geometry">
            <mxPoint x="826.5" y="585" as="sourcePoint" />
            <mxPoint x="806.5" y="555" as="targetPoint" />
            <Array as="points">
              <mxPoint x="690.5" y="535" />
            </Array>
          </mxGeometry>
        </mxCell>
        <mxCell id="Byr7ttWTIuSPwqKm5QDh-190" value="" style="group" vertex="1" connectable="0" parent="1">
          <mxGeometry x="737.5" y="355" width="70" height="190" as="geometry" />
        </mxCell>
        <mxCell id="Byr7ttWTIuSPwqKm5QDh-191" value="" style="shape=requiredInterface;html=1;verticalLabelPosition=bottom;sketch=0;" vertex="1" parent="Byr7ttWTIuSPwqKm5QDh-190">
          <mxGeometry x="20" width="50" height="190" as="geometry" />
        </mxCell>
        <mxCell id="Byr7ttWTIuSPwqKm5QDh-192" value="" style="endArrow=classic;html=1;rounded=0;" edge="1" parent="Byr7ttWTIuSPwqKm5QDh-190">
          <mxGeometry width="50" height="50" relative="1" as="geometry">
            <mxPoint x="20" y="190" as="sourcePoint" />
            <mxPoint y="190" as="targetPoint" />
          </mxGeometry>
        </mxCell>
        <mxCell id="Byr7ttWTIuSPwqKm5QDh-193" value="Para Cursar" style="rhombus;whiteSpace=wrap;html=1;" vertex="1" parent="1">
          <mxGeometry x="816.5" y="495" width="80" height="80" as="geometry" />
        </mxCell>
        <mxCell id="Byr7ttWTIuSPwqKm5QDh-194" value="" style="endArrow=none;html=1;rounded=0;" edge="1" parent="1" target="Byr7ttWTIuSPwqKm5QDh-193">
          <mxGeometry width="50" height="50" relative="1" as="geometry">
            <mxPoint x="922.5" y="535" as="sourcePoint" />
            <mxPoint x="972.5" y="485" as="targetPoint" />
          </mxGeometry>
        </mxCell>
        <mxCell id="Byr7ttWTIuSPwqKm5QDh-195" value="Requiere" style="rhombus;whiteSpace=wrap;html=1;" vertex="1" parent="1">
          <mxGeometry x="816.5" y="335" width="80" height="80" as="geometry" />
        </mxCell>
        <mxCell id="Byr7ttWTIuSPwqKm5QDh-196" value="" style="endArrow=none;html=1;rounded=0;" edge="1" parent="1" target="Byr7ttWTIuSPwqKm5QDh-195">
          <mxGeometry width="50" height="50" relative="1" as="geometry">
            <mxPoint x="922.5" y="375" as="sourcePoint" />
            <mxPoint x="972.5" y="325" as="targetPoint" />
          </mxGeometry>
        </mxCell>
        <mxCell id="Byr7ttWTIuSPwqKm5QDh-197" value="Profesor" style="rounded=1;whiteSpace=wrap;html=1;" vertex="1" parent="1">
          <mxGeometry x="1470" y="660" width="120" height="60" as="geometry" />
        </mxCell>
        <mxCell id="Byr7ttWTIuSPwqKm5QDh-198" value="" style="triangle;whiteSpace=wrap;html=1;direction=south;" vertex="1" parent="1">
          <mxGeometry x="1490" y="765" width="80" height="60" as="geometry" />
        </mxCell>
        <mxCell id="Byr7ttWTIuSPwqKm5QDh-199" value="" style="endArrow=none;html=1;rounded=0;" edge="1" parent="1" source="Byr7ttWTIuSPwqKm5QDh-204">
          <mxGeometry width="50" height="50" relative="1" as="geometry">
            <mxPoint x="1480" y="795" as="sourcePoint" />
            <mxPoint x="1530" y="745" as="targetPoint" />
          </mxGeometry>
        </mxCell>
        <mxCell id="Byr7ttWTIuSPwqKm5QDh-200" value="" style="endArrow=none;html=1;rounded=0;" edge="1" parent="1" source="Byr7ttWTIuSPwqKm5QDh-202" target="Byr7ttWTIuSPwqKm5QDh-198">
          <mxGeometry width="50" height="50" relative="1" as="geometry">
            <mxPoint x="1480" y="875" as="sourcePoint" />
            <mxPoint x="1530" y="825" as="targetPoint" />
          </mxGeometry>
        </mxCell>
        <mxCell id="Byr7ttWTIuSPwqKm5QDh-201" value="" style="endArrow=none;html=1;rounded=0;" edge="1" parent="1" source="Byr7ttWTIuSPwqKm5QDh-203" target="Byr7ttWTIuSPwqKm5QDh-198">
          <mxGeometry width="50" height="50" relative="1" as="geometry">
            <mxPoint x="1580" y="875" as="sourcePoint" />
            <mxPoint x="1630" y="825" as="targetPoint" />
          </mxGeometry>
        </mxCell>
        <mxCell id="Byr7ttWTIuSPwqKm5QDh-202" value="Tutor" style="rounded=1;whiteSpace=wrap;html=1;" vertex="1" parent="1">
          <mxGeometry x="1400" y="860" width="120" height="60" as="geometry" />
        </mxCell>
        <mxCell id="Byr7ttWTIuSPwqKm5QDh-203" value="Profesor" style="rounded=1;whiteSpace=wrap;html=1;" vertex="1" parent="1">
          <mxGeometry x="1530" y="860" width="120" height="60" as="geometry" />
        </mxCell>
        <mxCell id="Byr7ttWTIuSPwqKm5QDh-205" value="" style="endArrow=none;html=1;rounded=0;" edge="1" parent="1" source="Byr7ttWTIuSPwqKm5QDh-198" target="Byr7ttWTIuSPwqKm5QDh-204">
          <mxGeometry width="50" height="50" relative="1" as="geometry">
            <mxPoint x="1530" y="765" as="sourcePoint" />
            <mxPoint x="1530" y="745" as="targetPoint" />
          </mxGeometry>
        </mxCell>
        <mxCell id="Byr7ttWTIuSPwqKm5QDh-204" value="" style="ellipse;whiteSpace=wrap;html=1;" vertex="1" parent="1">
          <mxGeometry x="1520" y="735" width="20" height="20" as="geometry" />
        </mxCell>
        <mxCell id="Byr7ttWTIuSPwqKm5QDh-206" value="" style="endArrow=none;html=1;rounded=0;" edge="1" parent="1" source="Byr7ttWTIuSPwqKm5QDh-204" target="Byr7ttWTIuSPwqKm5QDh-197">
          <mxGeometry width="50" height="50" relative="1" as="geometry">
            <mxPoint x="1480" y="780" as="sourcePoint" />
            <mxPoint x="1530" y="730" as="targetPoint" />
          </mxGeometry>
        </mxCell>
        <mxCell id="Byr7ttWTIuSPwqKm5QDh-208" value="&lt;font style=&quot;font-size: 8px;&quot;&gt;Tipo&lt;/font&gt;" style="ellipse;whiteSpace=wrap;html=1;" vertex="1" parent="1">
          <mxGeometry x="1570" y="785" width="20" height="20" as="geometry" />
        </mxCell>
        <mxCell id="Byr7ttWTIuSPwqKm5QDh-209" value="" style="endArrow=none;html=1;rounded=0;" edge="1" parent="1" source="Byr7ttWTIuSPwqKm5QDh-198" target="Byr7ttWTIuSPwqKm5QDh-208">
          <mxGeometry width="50" height="50" relative="1" as="geometry">
            <mxPoint x="1540" y="820" as="sourcePoint" />
            <mxPoint x="1590" y="770" as="targetPoint" />
          </mxGeometry>
        </mxCell>
      </root>
    </mxGraphModel>
  </diagram>
</mxfile>
